# xmcd
#
# Track frame offsets: 
#        150
#        10237
#        22872
#
# Disc length: 440 seconds
#
# Revision: 0
# Processed by: cddbd v1.5.1PL2 Copyright (c) Steve Scherf et al.
# Submitted via: ExactAudioCopy v0.95b3
#
DISCID=1301b603
DTITLE=C. M. Honko - A Christmas Gift To You
DYEAR=1993
DGENRE=Christmas/Holiday
TTITLE0=Santa Claus Is Coming
TTITLE1=Christmas In Tennessee
TTITLE2=Lonely Christmas
EXTD=
EXTT0=
EXTT1=
EXTT2=
PLAYORDER=
